{"title":"Red Sorghum (Zhang Yimou, 1987) HDTVRip 720p","uid":10047949,"size":4688679037,"categoryP":"video","categoryS":"hd___movies","magnet":"?xt=urn:btih:ba31412c74b4c2507cb9d859d97faa9e68c86c40&amp;dn=Red+Sorghum+%28Zhang+Yimou%2C+1987%29+HDTVRip+720p&amp;tr=udp%3A%2F%2Ftracker.openbittorrent.com%3A80&amp;tr=udp%3A%2F%2Fopen.demonii.com%3A1337&amp;tr=udp%3A%2F%2Ftracker.coppersurfer.tk%3A6969&amp;tr=udp%3A%2F%2Fexodus.desync.com%3A6969","seeders":8,"leechers":4,"uploader":"deadmeadow10","files":-1,"time":1398564544,"description":"An old leper who owned a remote sorghum winery dies. Jiu'er, the wife bought by the leper, and her lover, take over the winery and set up an idealized quasi-matriarchal community headed by Jiu'er. When the Japanese invaders subject the area to their rule and cut down the sorghum to make way for a road, the community rises up and resists as the sorghum grows anew.\n\n\nIncludes English, Portuguese-Br and French soft subs.\n\n\n\nScreens:\n &lt;a href=&quot;\nhttp://i.imgur.com/RvXho5E.jpg&quot; rel=&quot;nofollow&quot; target=&quot;_NEW&quot;&gt;\nhttp://i.imgur.com/RvXho5E.jpg&lt;/a&gt; &lt;a href=&quot;\nhttp://i.imgur.com/otxRBSq.jpg&quot; rel=&quot;nofollow&quot; target=&quot;_NEW&quot;&gt;\nhttp://i.imgur.com/otxRBSq.jpg&lt;/a&gt; &lt;a href=&quot;\nhttp://i.imgur.com/6nqj2dT.jpg&quot; rel=&quot;nofollow&quot; target=&quot;_NEW&quot;&gt;\nhttp://i.imgur.com/6nqj2dT.jpg&lt;/a&gt; &lt;a href=&quot;\nhttp://i.imgur.com/AvwVvgx.jpg&quot; rel=&quot;nofollow&quot; target=&quot;_NEW&quot;&gt;\nhttp://i.imgur.com/AvwVvgx.jpg&lt;/a&gt; &lt;a href=&quot;\nhttp://i.imgur.com/XGCZ1HW.jpg&quot; rel=&quot;nofollow&quot; target=&quot;_NEW&quot;&gt;\nhttp://i.imgur.com/XGCZ1HW.jpg&lt;/a&gt; &lt;a href=&quot;\nhttp://i.imgur.com/foOwVOJ.jpg&quot; rel=&quot;nofollow&quot; target=&quot;_NEW&quot;&gt;\nhttp://i.imgur.com/foOwVOJ.jpg&lt;/a&gt;\n\n\nGeneral\nUnique ID                                : 240880501700105959084635597653997415122 (0xB537E5A9F096457F8D6464B371C66AD2)\nComplete name                            : CCTV6.Red.Sorghum.1988.720p.HDTV.x264-NGB.mkv\nFormat                                   : Matroska\nFormat version                           : Version 4 / Version 2\nFile size                                : 4.37 GiB\nDuration                                 : 1h 26mn\nOverall bit rate                         : 7 255 Kbps\nEncoded date                             : UTC 2014-02-19 12:42:02\nWriting application                      : mkvmerge v6.2.0 ('Promised Land') built on Apr 28 2013 12:22:01\nWriting library                          : libebml v1.3.0 + libmatroska v1.4.0\n\nVideo\nID                                       : 1\nFormat                                   : AVC\nFormat/Info                              : Advanced Video Codec\nFormat profile                           : &lt;a class=&quot;__cf_email__&quot; href=&quot;/cdn-cgi/l/email-protection&quot; data-cfemail=&quot;5911303e3119156d7768&quot;&gt;[email&amp;#160;protected]&lt;/a&gt;&lt;script cf-hash='f9e31' type=&quot;text/javascript&quot;&gt;\n/* &lt;![CDATA[ */!function(){try{var t=&quot;currentScript&quot;in document?document.currentScript:function(){for(var t=document.getElementsByTagName(&quot;script&quot;),e=t.length;e--;)if(t[e].getAttribute(&quot;cf-hash&quot;))return t[e]}();if(t&amp;&amp;t.previousSibling){var e,r,n,i,c=t.previousSibling,a=c.getAttribute(&quot;data-cfemail&quot;);if(a){for(e=&quot;&quot;,r=parseInt(a.substr(0,2),16),n=2;a.length-n;n+=2)i=parseInt(a.substr(n,2),16)^r,e+=String.fromCharCode(i);e=document.createTextNode(e),c.parentNode.replaceChild(e,c)}}}catch(u){}}();/* ]]&gt; */&lt;/script&gt;\nFormat settings, CABAC                   : Yes\nFormat settings, ReFrames                : 5 frames\nCodec ID                                 : V_MPEG4/ISO/AVC\nDuration                                 : 1h 26mn\nBit rate                                 : 6 944 Kbps\nWidth                                    : 1 280 pixels\nHeight                                   : 720 pixels\nDisplay aspect ratio                     : 16:9\nFrame rate mode                          : Constant\nFrame rate                               : 25.000 fps\nColor space                              : YUV\nChroma subsampling                       : 4:2:0\nBit depth                                : 8 bits\nScan type                                : Progressive\nBits/(Pixel*Frame)                       : 0.301\nStream size                              : 4.09 GiB (94%)\nWriting library                          : x264 core 133 r2334 a3ac64b\nEncoding settings                        : cabac=1 / ref=5 / deblock=1:-3:-3 / analyse=0x3:0x113 / me=umh / subme=9 / psy=1 / psy_rd=1.00:0.00 / mixed_ref=1 / me_range=16 / chroma_me=1 / trellis=1 / 8x8dct=1 / cqm=0 / deadzone=21,11 / fast_pskip=1 / chroma_qp_offset=-4 / threads=12 / lookahead_threads=1 / sliced_threads=0 / nr=0 / decimate=0 / interlaced=0 / bluray_compat=0 / constrained_intra=0 / bframes=3 / b_pyramid=2 / b_adapt=2 / b_bias=0 / direct=3 / weightb=1 / open_gop=0 / weightp=2 / keyint=250 / keyint_min=25 / scenecut=40 / intra_refresh=0 / rc_lookahead=50 / rc=2pass / mbtree=1 / bitrate=6944 / ratetol=1.0 / qcomp=0.60 / qpmin=10 / qpmax=51 / qpstep=4 / cplxblur=20.0 / qblur=0.5 / vbv_maxrate=8000 / vbv_bufsize=5000 / nal_hrd=none / ip_ratio=1.40 / aq=1:1.00\nDefault                                  : Yes\nForced                                   : No\n\nAudio\nID                                       : 2\nFormat                                   : AC-3\nFormat/Info                              : Audio Coding 3\nMode extension                           : CM (complete main)\nFormat settings, Endianness              : Big\nCodec ID                                 : A_AC3\nDuration                                 : 1h 26mn\nBit rate mode                            : Constant\nBit rate                                 : 320 Kbps\nChannel count                            : 2 channels\nChannel positions                        : Front: L R\nSampling rate                            : 48.0 KHz\nBit depth                                : 16 bits\nCompression mode                         : Lossy\nDelay relative to video                  : 28ms\nStream size                              : 197 MiB (4%)\nDefault                                  : Yes\nForced                                   : No\n\n","torrent":{"xt":"urn:btih:ba31412c74b4c2507cb9d859d97faa9e68c86c40","amp;dn":"Red+Sorghum+%28Zhang+Yimou%2C+1987%29+HDTVRip+720p","amp;tr":["udp%3A%2F%2Ftracker.openbittorrent.com%3A80","udp%3A%2F%2Fopen.demonii.com%3A1337","udp%3A%2F%2Ftracker.coppersurfer.tk%3A6969","udp%3A%2F%2Fexodus.desync.com%3A6969"],"infoHash":"ba31412c74b4c2507cb9d859d97faa9e68c86c40","infoHashBuffer":{"type":"Buffer","data":[186,49,65,44,116,180,194,80,124,185,216,89,217,127,170,158,104,200,108,64]},"announce":[],"urlList":[]}}